<?xml version="1.0" encoding="UTF-8"?>
<svg id="Vrstva_1" data-name="Vrstva 1" xmlns="http://www.w3.org/2000/svg" viewBox="0 0 176.18 54.61">
  <defs>
    <style>
      .cls-1 {
        fill: #fff;
        stroke-width: 0px;
      }
    </style>
  </defs>
  <path class="cls-1" d="M0,51.87c0-.5.1-.95.35-1.35.25-.45.6-.75,1.05-1,.4-.25.85-.4,1.35-.4h23.96c.5,0,.95.15,1.35.4.45.25.75.55,1,1,.3.4.4.85.4,1.35s-.1.95-.4,1.4c-.25.4-.55.75-1,1-.4.2-.85.35-1.35.35H2.75c-.5,0-.95-.15-1.35-.4-.45-.25-.8-.55-1.05-1-.25-.4-.35-.85-.35-1.35ZM14.78,40.19c-.5,0-.95-.15-1.35-.4-.45-.25-.75-.55-1.05-1-.25-.4-.35-.85-.35-1.35V5.79h-7.59c-.5,0-.95-.15-1.35-.4-.45-.25-.8-.6-1.05-1s-.35-.85-.35-1.35.1-.95.35-1.35c.25-.45.6-.8,1.05-1.05.4-.25.85-.35,1.35-.35h20.57c.45,0,.95.1,1.35.35s.75.6,1,1.05c.25.4.4.85.4,1.35s-.15.95-.4,1.35c-.25.45-.6.75-1,1s-.9.4-1.35.4h-7.49v31.65c0,.5-.15.95-.4,1.35-.2.45-.55.8-1,1.05-.4.2-.85.35-1.35.35ZM37.29,51.87c0-.5.15-.95.4-1.35.25-.45.6-.75,1-1,.45-.25.9-.4,1.35-.4h23.96c.5,0,.95.15,1.4.4.4.25.75.55,1,1,.25.4.4.85.4,1.35s-.15.95-.4,1.4c-.25.4-.6.75-1,1-.45.2-.9.35-1.4.35h-23.96c-.45,0-.9-.15-1.35-.4-.4-.25-.75-.55-1-1-.25-.4-.4-.85-.4-1.35ZM40.54,2.75c0-.5.1-1,.35-1.4s.6-.75,1-1,.85-.35,1.35-.35,1,.1,1.4.35c.45.25.75.6,1,1s.4.9.4,1.4v26.11c0,1.25.25,2.3.7,3.24.5.9,1.2,1.6,2.15,2.1.9.5,1.95.75,3.19.75s2.25-.25,3.15-.75,1.6-1.2,2.1-2.15c.5-.9.75-1.95.75-3.19V2.75c0-.5.15-1,.4-1.4.2-.4.55-.75,1-1,.4-.25.85-.35,1.35-.35.55,0,1,.1,1.4.35.45.25.75.6,1,1s.4.9.4,1.4v26.11c0,2.15-.5,4.14-1.55,5.89-1,1.8-2.4,3.19-4.14,4.19-1.75,1-3.69,1.5-5.84,1.5s-4.14-.5-5.89-1.5c-1.8-1-3.15-2.4-4.14-4.14-1-1.8-1.5-3.74-1.5-5.94V2.75ZM74.63,51.87c0-.5.1-.95.35-1.35.25-.45.6-.75,1.05-1,.4-.25.85-.4,1.35-.4h24.46c.5,0,.95.15,1.35.4.45.25.75.55,1,1,.25.4.4.85.4,1.35s-.15.95-.4,1.4c-.25.4-.55.75-1,1-.4.2-.85.35-1.35.35h-24.46c-.5,0-.95-.15-1.35-.4-.45-.25-.8-.55-1.05-1-.25-.4-.35-.85-.35-1.35ZM79.82,2.75c0-.5.15-.95.4-1.4.25-.4.55-.75,1-1,.4-.25.85-.35,1.35-.35s.95.1,1.35.35c.45.25.8.6,1.05,1,.25.45.35.9.35,1.4v31.65h13.13c.5,0,.95.1,1.35.4.45.25.75.55,1,1,.3.4.4.85.4,1.35s-.1.95-.4,1.35c-.25.45-.55.8-1,1.05-.4.25-.85.35-1.35.35h-15.88c-.5,0-.95-.1-1.35-.35-.45-.25-.75-.6-1-1.05-.25-.4-.4-.85-.4-1.35V2.75Z"/>
  <g>
    <path class="cls-1" d="M111.47,36.86L123.87,2.39C124.37,1.06,125.12,0,126.64,0s2.3,1.03,2.8,2.44l12.43,34.42c.55,1.55-.47,3.02-2.13,3.02h-26.19c-1.64,0-2.63-1.47-2.08-3.02ZM135.13,34.4l-8.49-23.61-8.46,23.61h16.95Z"/>
    <path class="cls-1" d="M153.1,37.14V3.05c0-1.53,1.25-2.77,2.77-2.77h8.82c6.85,0,11.48,4.91,11.48,11.29,0,3.61-1.69,6.96-4,8.49,2.36,1.66,4,4.97,4,8.6,0,6.41-4.69,11.23-11.48,11.23h-8.82c-1.53,0-2.77-1.25-2.77-2.75ZM164.69,17.34c3.41,0,5.99-2.41,5.99-5.77,0-3.58-2.33-5.8-5.99-5.8h-6.1v11.57h6.1ZM164.69,34.4c3.66,0,5.99-2.19,5.99-5.74s-2.52-5.83-5.99-5.83h-6.1v11.57h6.1Z"/>
  </g>
</svg>